Coordinates
version=1
nRows=17
nColumns=24
inDegrees=yes

Units are S.I. units (second, meters, Newtons, ...)
Angles are in degrees.

endheader
time	pelvis_tilt	pelvis_list	pelvis_rotation	pelvis_tx	pelvis_ty	pelvis_tz	hip_flexion_r	hip_adduction_r	hip_rotation_r	knee_angle_r	ankle_angle_r	subtalar_angle_r	mtp_angle_r	hip_flexion_l	hip_adduction_l	hip_rotation_l	knee_angle_l	ankle_angle_l	subtalar_angle_l	mtp_angle_l	lumbar_extension	lumbar_bending	lumbar_rotation
      0.94666667	     -0.21279718	     -5.05074314	      0.72697188	     -0.38595776	      1.00273892	      0.34523553	      8.31859659	     11.01394982	      0.81277972	    -14.37326366	      3.50464024	    -13.80849848	     -0.67580353	     14.56115303	     -4.99320327	      1.25099595	    -70.66796014	    -10.10882053	    -11.17139222	      1.81544336	      1.30481656	      9.58470736	      2.49743496
      0.95083333	     -0.17012707	     -4.95024042	      0.54088536	     -0.38124478	      1.00334141	      0.34556631	      7.78843698	     10.93900509	      1.02080387	    -14.04541371	      3.45569285	    -13.68912818	     -0.68651550	     15.12702957	     -4.87835602	      1.17951547	    -70.71365859	     -9.53271119	    -11.63324676	      1.77576153	      1.16640390	      9.47298798	      2.71106276
      0.95500000	     -0.14863392	     -4.84578136	      0.35940027	     -0.37652955	      1.00387498	      0.34588251	      7.29875428	     10.85242010	      1.18900503	    -13.75580282	      3.46902058	    -13.59247952	     -0.69330980	     15.71065337	     -4.76039200	      1.11402924	    -70.72569864	     -8.90219027	    -12.00766879	      1.74798125	      1.07661539	      9.34621923	      2.82104044
      0.95916667	     -0.14548263	     -4.73706616	      0.19685183	     -0.37181360	      1.00435998	      0.34614838	      6.82241946	     10.75500766	      1.35222027	    -13.44822989	      3.50708831	    -13.49381299	     -0.69707618	     16.30839387	     -4.62296258	      1.08556619	    -70.69113012	     -8.30012381	    -12.33666131	      1.73001178	      1.02223205	      9.23503899	      2.91151058
      0.96333333	     -0.07961048	     -4.64483447	     -0.00998926	     -0.36713697	      1.00490356	      0.34649030	      6.27976045	     10.68158034	      1.58397270	    -13.14210348	      3.47578161	    -13.38902674	     -0.71472233	     16.82139372	     -4.53765751	      0.98616390	    -70.61493314	     -7.67832373	    -12.64412427	      1.66268123	      0.84851664	      9.12933574	      3.15360765
      0.96750000	     -0.07690424	     -4.53054467	     -0.16148235	     -0.36243276	      1.00534969	      0.34672684	      5.80922867	     10.57098853	      1.73397889	    -12.84150360	      3.54131438	    -13.30707668	     -0.72046902	     17.40305008	     -4.39287114	      0.97056806	    -70.49202672	     -7.09391251	    -12.90427761	      1.63939052	      0.80611016	      9.00526921	      3.23464752
      0.97166667	     -0.03245254	     -4.43364333	     -0.35727495	     -0.35777512	      1.00579653	      0.34704438	      5.29224614	     10.48666961	      1.97286509	    -12.53681106	      3.54545951	    -13.21898338	     -0.75510500	     17.92942816	     -4.30094829	      0.89210917	    -70.34348851	     -6.46636073	    -13.06313338	      1.52254044	      0.66249659	      8.88522159	      3.52664288
      0.97583333	     -0.02327110	     -4.33334550	     -0.54762837	     -0.35311369	      1.00618710	      0.34732363	      4.83298389	     10.38852031	      2.15140961	    -12.27024968	      3.59021692	    -13.13696359	     -0.77250022	     18.48075447	     -4.19603465	      0.83030009	    -70.14178288	     -5.85699523	    -13.25656232	      1.46841424	      0.58428964	      8.76720848	      3.61349328
      0.98000000	      0.00833919	     -4.24339793	     -0.72264259	     -0.34845677	      1.00657205	      0.34758129	      4.33120502	     10.30039222	      2.36338680	    -11.96323687	      3.63467961	    -13.05738178	     -0.81096760	     19.00346820	     -4.09984402	      0.79251127	    -69.90732467	     -5.24047818	    -13.30415117	      1.36039249	      0.47300485	      8.67638923	      3.81819915
      0.98416667	      0.02363127	     -4.15002291	     -0.90499770	     -0.34381186	      1.00690926	      0.34783795	      3.85981171	     10.20383245	      2.56054061	    -11.68085168	      3.68716074	    -12.98020302	     -0.85170425	     19.53337029	     -4.00519337	      0.74352734	    -69.63196634	     -4.63455729	    -13.35942087	      1.25798598	      0.38591739	      8.57038602	      3.96441579
      0.98833333	      0.05574090	     -4.05946569	     -1.08293017	     -0.33916259	      1.00724718	      0.34808999	      3.36894851	     10.10631257	      2.74601719	    -11.39481257	      3.74622512	    -12.90136106	     -0.89738745	     20.03258428	     -3.91710516	      0.69770819	    -69.31355239	     -4.03187141	    -13.36640381	      1.15472775	      0.28370132	      8.46624244	      4.11129993
      0.99250000	      0.07301959	     -3.96487060	     -1.26908229	     -0.33454239	      1.00754377	      0.34833679	      2.90786924	     10.00080888	      2.93029022	    -11.13242354	      3.80345271	    -12.80997173	     -0.92788977	     20.53844669	     -3.82724504	      0.64166905	    -68.95303697	     -3.44726098	    -13.37797738	      1.09445576	      0.19007474	      8.34834282	      4.21038151
      0.99666667	      0.10213989	     -3.88669067	     -1.43232168	     -0.32989217	      1.00781583	      0.34855816	      2.41575657	      9.90907328	      3.10645770	    -10.83368071	      3.87650326	    -12.72576763	     -0.97741301	     21.02314324	     -3.75299101	      0.61501058	    -68.56045402	     -2.85652753	    -13.25918967	      1.00593154	      0.10029876	      8.26401361	      4.38237503
      1.00083333	      0.11499291	     -3.79453801	     -1.62195471	     -0.32528193	      1.00804293	      0.34879691	      1.96710489	      9.79863074	      3.28430782	    -10.58558111	      3.94090318	    -12.63283738	     -1.00858330	     21.50982799	     -3.67303044	      0.55578966	    -68.12108206	     -2.29160428	    -13.19562131	      0.95742137	      0.01506957	      8.16032187	      4.47499881
      1.00500000	      0.12681201	     -3.72422830	     -1.79188545	     -0.32066325	      1.00822597	      0.34901272	      1.50644677	      9.70894740	      3.45339004	    -10.30667791	      4.01413135	    -12.53389305	     -1.03876869	     21.99498473	     -3.61501502	      0.52101632	    -67.65808656	     -1.72496601	    -13.06134283	      0.91697398	     -0.06557247	      8.06834591	      4.58846664
      1.00916667	      0.15559164	     -3.65422136	     -1.95324863	     -0.31604971	      1.00840689	      0.34920214	      1.02720814	      9.61506467	      3.62073611	    -10.02679883	      4.09004305	    -12.44405345	     -1.08260679	     22.44703040	     -3.55246560	      0.50076997	    -67.15030668	     -1.17308331	    -12.84085994	      0.86233486	     -0.16706290	      8.00661819	      4.74290111
      1.01333333	      0.18506665	     -3.58753980	     -2.11819183	     -0.31143591	      1.00857563	      0.34939535	      0.54788693	      9.52072488	      3.78357865	     -9.74594408	      4.16263972	    -12.35387333	     -1.12479980	     22.88362168	     -3.49873102	      0.47120894	    -66.59994227	     -0.65097951	    -12.64839395	      0.81495584	     -0.26803054	      7.93394165	      4.86650861
